{"accessors":[{"bufferView":0,"componentType":5123,"count":13824,"max":[2408],"min":[0],"type":"SCALAR"},{"bufferView":1,"componentType":5126,"count":2409,"max":[0.28260868787765503,2.056636095046997,1.0],"min":[-1.7173912525177002,0.05663615092635155,-1.0],"type":"VEC3"},{"bufferView":2,"componentType":5126,"count":2409,"max":[1.0,4.3841790075172145e-15,1.0],"min":[-1.0,0.0,-1.0],"type":"VEC3"},{"bufferView":3,"componentType":5126,"count":2409,"max":[1.0,1.0],"min":[0.0,0.0],"type":"VEC2"},{"bufferView":4,"componentType":5123,"count":29376,"max":[5020],"min":[0],"type":"SCALAR"},{"bufferView":5,"componentType":5126,"count":5021,"max":[0.5408061146736145,4.493915557861328,1.2581974267959595],"min":[-1.9755886793136597,1.97752046585083,-1.2581974267959595],"type":"VEC3"},{"bufferView":6,"componentType":5126,"count":5021,"max":[0.894428014755249,1.0,0.8944284915924072],"min":[-0.8944283127784729,0.4467979967594147,-0.8944289088249207],"type":"VEC3"},{"bufferView":7,"componentType":5126,"count":5021,"max":[1.0,1.0],"min":[0.0,0.0],"type":"VEC2"},{"bufferView":8,"componentType":5123,"count":13824,"max":[2408],"min":[0],"type":"SCALAR"},{"bufferView":9,"componentType":5126,"count":2409,"max":[1.6562461853027344,1.4353315830230713,0.6613419651985168],"min":[0.2876935601234436,0.0667790099978447,-0.7072106003761292],"type":"VEC3"},{"bufferView":10,"componentType":5126,"count":2409,"max":[1.0,0.0,1.0],"min":[-1.0,0.0,-1.0],"type":"VEC3"},{"bufferView":11,"componentType":5126,"count":2409,"max":[1.0,1.0],"min":[0.0,0.0],"type":"VEC2"},{"bufferView":12,"componentType":5123,"count":29376,"max":[5020],"min":[0],"type":"SCALAR"},{"bufferView":13,"componentType":5126,"count":5021,"max":[1.7243393659591675,2.9654784202575684,0.7795422077178955],"min":[0.16525503993034363,1.4063940048217773,-0.7795422077178955],"type":"VEC3"},{"bufferView":14,"componentType":5126,"count":5021,"max":[0.8944291472434998,0.9999999403953552,0.8944287300109863],"min":[-0.8944281339645386,0.4467982053756714,-0.8944284915924072],"type":"VEC3"},{"bufferView":15,"componentType":5126,"count":5021,"max":[1.0,1.0],"min":[0.0,0.0],"type":"VEC2"},{"bufferView":16,"componentType":5123,"count":216,"max":[48],"min":[0],"type":"SCALAR"},{"bufferView":17,"componentType":5126,"count":49,"max":[1.9406547546386719,0.031753744930028915,1.9594637155532837],"min":[-1.9782726764678955,0.031753744930028915,-1.9594637155532837],"type":"VEC3"},{"bufferView":18,"componentType":5126,"count":49,"max":[0.0,1.0,0.0],"min":[0.0,0.9999999403953552,0.0],"type":"VEC3"},{"bufferView":19,"componentType":5126,"count":49,"max":[1.0,1.0],"min":[0.0,0.0],"type":"VEC2"}],"asset":{"copyright":null,"generator":"Soft8Soft Verge3D for Maya plug-in","version":"2.0"},"bufferViews":[{"buffer":0,"byteLength":27648,"byteOffset":0,"target":34963},{"buffer":0,"byteLength":28908,"byteOffset":27648,"target":34962},{"buffer":0,"byteLength":28908,"byteOffset":56556,"target":34962},{"buffer":0,"byteLength":19272,"byteOffset":85464,"target":34962},{"buffer":0,"byteLength":58752,"byteOffset":104736,"target":34963},{"buffer":0,"byteLength":60252,"byteOffset":163488,"target":34962},{"buffer":0,"byteLength":60252,"byteOffset":223740,"target":34962},{"buffer":0,"byteLength":40168,"byteOffset":283992,"target":34962},{"buffer":0,"byteLength":27648,"byteOffset":324160,"target":34963},{"buffer":0,"byteLength":28908,"byteOffset":351808,"target":34962},{"buffer":0,"byteLength":28908,"byteOffset":380716,"target":34962},{"buffer":0,"byteLength":19272,"byteOffset":409624,"target":34962},{"buffer":0,"byteLength":58752,"byteOffset":428896,"target":34963},{"buffer":0,"byteLength":60252,"byteOffset":487648,"target":34962},{"buffer":0,"byteLength":60252,"byteOffset":547900,"target":34962},{"buffer":0,"byteLength":40168,"byteOffset":608152,"target":34962},{"buffer":0,"byteLength":432,"byteOffset":648320,"target":34963},{"buffer":0,"byteLength":588,"byteOffset":648752,"target":34962},{"buffer":0,"byteLength":588,"byteOffset":649340,"target":34962},{"buffer":0,"byteLength":392,"byteOffset":649928,"target":34962}],"buffers":[{"byteLength":650320,"uri":"XhousegLTF.bin"}],"cameras":[{"extensions":{"S8S_v3d_camera_data":{"controls":"ORBIT","enablePan":true,"moveSpeed":1.0,"orbitMaxDistance":1000.0,"orbitMaxPolarAngle":3.141592653589793,"orbitMaxZoom":100.0,"orbitMinDistance":0.0,"orbitMinPolarAngle":0.0,"orbitMinZoom":0.009999999776482582,"orbitTarget":[9.414691248821327e-13,6.945555242054979e-13,8.952838470577262e-13],"rotateSpeed":1.0,"viewportFitInitialAspect":1.5,"viewportFitType":"HORIZONTAL"}},"name":"perspShape","perspective":{"aspectRatio":1.5,"yfov":0.6605947096585075,"zfar":10000.0,"znear":0.1},"type":"perspective"}],"extensions":{"S8S_v3d_data":{"lights":[{"color":[1,1,1],"intensity":2.5,"name":"__DEFAULT__","profile":"maya","type":"directional"}]}},"extensionsUsed":["S8S_v3d_material_data","S8S_v3d_data","S8S_v3d_camera_data","S8S_v3d_node_data","S8S_v3d_scene_data"],"materials":[{"extensions":{"S8S_v3d_material_data":{"gtaoVisible":true,"nodeGraph":{"edges":[{"fromNode":1,"fromOutput":0,"toInput":0,"toNode":0}],"nodes":[{"inputs":[[0.0,0.0,0.0,1],[0,0,0,0],[0,0,0]],"is_active_output":true,"name":"initialParticleSE","outputs":[],"type":"SHADING_ENGINE_MY"},{"inputs":[[0.5,0.5,0.5],[0.0,0.0,0.0],[0.0,0.0,0.0],1.0,0.800000011920929,[1.0,1.0,1.0],0.0,[0.0,0.0,0.0]],"name":"lambert1","outputs":[[0.0,0.0,0.0,0]],"type":"LAMBERT_MY"}]},"profile":"maya"}},"name":"lambert1"},{"extensions":{"S8S_v3d_material_data":{"nodeGraph":{"edges":[{"fromNode":0,"fromOutput":0,"toInput":0,"toNode":1}],"nodes":[{"inputs":[[0.10653923276464054,0.10653923276464054,0.10653923276464054],[0,0,0],[0,0,0],[0,0,0],[0,0,0],[0,0,0]],"name":"aiRaySwitchColor","outputs":[[0,0,0],0],"type":"RAY_SWITCH_AR"},{"inputs":[[0,0,0],1],"is_active_output":true,"name":"aiSkyDomeLightShapeColor","outputs":[],"type":"SKYDOME_LIGHT_AR"}]},"profile":"maya"}},"name":"Verge3D_Environment"}],"meshes":[{"name":"nurbsCylinder1ConvertedShape","primitives":[{"attributes":{"NORMAL":2,"POSITION":1,"TEXCOORD_0":3},"indices":0,"material":0,"mode":4}]},{"name":"nurbsCone1ConvertedShape","primitives":[{"attributes":{"NORMAL":6,"POSITION":5,"TEXCOORD_0":7},"indices":4,"material":0,"mode":4}]},{"name":"nurbsCylinder2ConvertedShape","primitives":[{"attributes":{"NORMAL":10,"POSITION":9,"TEXCOORD_0":11},"indices":8,"material":0,"mode":4}]},{"name":"nurbsCone2ConvertedShape","primitives":[{"attributes":{"NORMAL":14,"POSITION":13,"TEXCOORD_0":15},"indices":12,"material":0,"mode":4}]},{"name":"nurbsPlane1ConvertedShape","primitives":[{"attributes":{"NORMAL":18,"POSITION":17,"TEXCOORD_0":19},"indices":16,"material":0,"mode":4}]}],"nodes":[{"extensions":{"S8S_v3d_node_data":{"hidden":false,"hidpiCompositing":false}},"name":"nurbsCube1","rotation":[0.0,0.0,0.0,1.0],"scale":[1.0,1.0,1.0],"translation":[0.0,0.0,0.0]},{"extensions":{"S8S_v3d_node_data":{"frustumCulling":true,"hidden":false,"hidpiCompositing":false,"renderOrder":0,"useCastShadows":true,"useShadows":true}},"mesh":0,"name":"nurbsCylinder1Converted","rotation":[0.0,0.0,0.0,1.0],"scale":[1.0,1.0,1.0],"translation":[0.0,0.0,0.0]},{"extensions":{"S8S_v3d_node_data":{"frustumCulling":true,"hidden":false,"hidpiCompositing":false,"renderOrder":0,"useCastShadows":true,"useShadows":true}},"mesh":1,"name":"nurbsCone1Converted","rotation":[0.0,0.0,0.0,1.0],"scale":[1.0,1.0,1.0],"translation":[0.0,0.0,0.0]},{"extensions":{"S8S_v3d_node_data":{"frustumCulling":true,"hidden":false,"hidpiCompositing":false,"renderOrder":0,"useCastShadows":true,"useShadows":true}},"mesh":2,"name":"nurbsCylinder2Converted","rotation":[0.0,0.0,0.0,1.0],"scale":[1.0,1.0,1.0],"translation":[0.0,0.0,0.0]},{"extensions":{"S8S_v3d_node_data":{"frustumCulling":true,"hidden":false,"hidpiCompositing":false,"renderOrder":0,"useCastShadows":true,"useShadows":true}},"mesh":3,"name":"nurbsCone2Converted","rotation":[0.0,0.0,0.0,1.0],"scale":[1.0,1.0,1.0],"translation":[0.0,0.0,0.0]},{"extensions":{"S8S_v3d_node_data":{"frustumCulling":true,"hidden":false,"hidpiCompositing":false,"renderOrder":0,"useCastShadows":true,"useShadows":true}},"mesh":4,"name":"nurbsPlane1Converted","rotation":[0.0,0.0,0.0,1.0],"scale":[1.0,1.0,1.0],"translation":[0.0,0.0,0.0]},{"camera":0,"children":[7],"extensions":{"S8S_v3d_node_data":{"hidden":true,"hidpiCompositing":false}},"name":"persp","rotation":[-0.2230243961057575,0.37136585056309357,0.09237972960707397,0.8965564730316413],"scale":[1.0,1.0,1.0],"translation":[11.724007028698246,8.793005271523684,11.72400702869821]},{"extensions":{"S8S_v3d_node_data":{"light":0}},"name":"__DEFAULT_LIGHT__","rotation":[-0.13052619222005157,-0.0,-0.0,0.9914448613738104],"translation":[11.724007028698246,8.793005271523684,11.72400702869821]}],"scene":0,"scenes":[{"extensions":{"S8S_v3d_scene_data":{"aaMethod":"AUTO","iblEnvironmentMode":"PMREM","physicallyCorrectLights":true,"shadowMap":{"esmDistanceScale":2.5,"renderReverseSided":false,"renderSingleSided":true,"type":"PCFPOISSON"},"unitsScaleFactor":1.0,"useHDR":false,"worldMaterial":1}},"extras":{"animFrameRate":24.0,"coordSystem":"Y_UP_RIGHT"},"name":"Scene","nodes":[0,1,2,3,4,5,6]}]}